# xmcd
#
# Track frame offsets:
#  182
#  21607
#  34810
#  57967
#  78237
#  98287
#  118465
#  139265
#  161020
#  174395
#  194237
#
# Disc length: 2750 seconds
#
# Revision: 0
# Processed by: cddbd v1.5.2PL0 Copyright (c) Steve Scherf et al.
# Submitted via: Collectorz.com_Music_Collector 6.11
#
DISCID=9a0abc0b
DTITLE=Various Artist - Metel CD Collection 14
DYEAR=1900
DGENRE=Metal
TTITLE0=Thin Lizzy - The Boys Are Back In Town
TTITLE1=Seaweed - Metal Gazer/Your Privilege
TTITLE2=Sepultura - Inner Self
TTITLE3=crowbar - No Quarter
TTITLE4=Circle Of Soul - Strung Out
TTITLE5=Bad Company - Holy Water
TTITLE6=Sister Double Happiness - Whipping Song
TTITLE7=FM - Burning My Heart Down
TTITLE8=Uncle Sam - Stripped Of Innocence
TTITLE9=Pat Travers - Wasted Years
TTITLE10=Venom - Welcome To Hell
EXTD=
EXTT0=
EXTT1=
EXTT2=
EXTT3=
EXTT4=
EXTT5=
EXTT6=
EXTT7=
EXTT8=
EXTT9=
EXTT10=
PLAYORDER=
